<svg version="1.1" id="Layer_1" xmlns="http://www.w3.org/2000/svg" x="0" y="0" viewBox="0 0 30.3 25.4" xml:space="preserve"><style>.st0{fill:none;stroke:#010202;stroke-width:1.5;stroke-linecap:round;stroke-linejoin:round}</style><switch><g><g id="Delivery" transform="translate(.75 .75)"><path id="Path" class="st0" d="M2.5 12H10"/><path id="Path-2" class="st0" d="M3.1 21.5c0 1.4 1.1 2.5 2.5 2.5s2.5-1.1 2.5-2.5S7 19 5.6 19s-2.5 1.1-2.5 2.5z"/><path id="Path-3_1_" class="st0" d="M20.7 21.5c0 1.4 1.1 2.5 2.5 2.5s2.5-1.1 2.5-2.5-1.1-2.5-2.5-2.5-2.5 1.1-2.5 2.5z"/><path id="Path-4_1_" class="st0" d="M3.1 21.5H.6c-.3 0-.6-.3-.6-.6v-6.1c0-.2.1-.3.2-.4L2.5 12l2.8-5c.2-.4.6-.6 1.1-.6H10V.6c0-.3.3-.6.6-.6h17.5c.3 0 .6.3.6.6v20.2c0 .3-.3.6-.6.6h-2.5"/><path id="Path-5" class="st0" d="M8.1 21.5H18"/><path id="Path-6" class="st0" d="M10 6.2v15.3"/></g></g></switch></svg>