<svg version="1.1" id="Layer_1" xmlns="http://www.w3.org/2000/svg" xmlns:xlink="http://www.w3.org/1999/xlink" x="0" y="0" viewBox="0 0 36.002 36.004" xml:space="preserve"><style>.st1{fill:#010202}.st2{fill:#fff}</style><switch><g><defs><path id="SVGID_1_" d="M0 0h36v36H0z"/></defs><clipPath id="SVGID_2_"><use xlink:href="#SVGID_1_" overflow="visible"/></clipPath><g id="Group_2" clip-path="url(#SVGID_2_)"><path id="Path_66" class="st1" d="M17.986 31.554c-7.511.017-13.613-6.059-13.63-13.57-.017-7.511 6.059-13.613 13.57-13.63 7.511-.017 13.613 6.059 13.63 13.57v.075c-.007 7.489-6.081 13.556-13.57 13.555m-4.91-4.714h4.68c.007-.085.018-.163.018-.241V12.707a.517.517 0 00-.165-.4 680.828 680.828 0 01-3.062-3.066c-.044-.045-.094-.084-.106-.094l-7.657 7.68 3.3 3.327 2.992-3.022v9.708zm16.145-9.992l-7.67-7.7c-.027.026-.081.074-.132.125-1 1-2 2.008-3 3a.558.558 0 00-.175.439c.004 4.617.004 9.233 0 13.85v.267h4.7v-9.63l.055-.021 2.935 2.948 3.281-3.287"/><path id="Path_67" class="st1" d="M9.019 2.38c.1-.066.181-.118.26-.167.042-.026.086-.05.153-.088l1.29 2.08c-.216.135-.407.266-.61.374a.254.254 0 01-.2-.043c-.46-.3-.915-.612-1.372-.92a.535.535 0 00-.232-.1l.978 1.589-.412.255-1.291-2.08c.209-.132.4-.267.612-.379.047-.025.149.015.208.053.466.306.928.619 1.392.93a.48.48 0 00.214.091l-.984-1.594"/><path id="Path_68" class="st1" d="M35.938 19.878c-.04.256-.068.5-.123.736-.011.048-.122.085-.192.1-.606.167-1.214.33-1.823.531l.923.151.942.159-.071.478-2.413-.394c.039-.246.063-.47.116-.687.015-.06.11-.123.181-.143.6-.17 1.2-.331 1.8-.545l-1.824-.3.074-.475 2.408.389"/><path id="Path_69" class="st1" d="M28.415 29.668l1.523 1.937c-.3.23-.569.469-.868.668a1.2 1.2 0 01-1.846-.788 1.07 1.07 0 01.342-1.1c.261-.25.553-.467.849-.713m-.189.652c-.308.232-.583.455-.506.868.089.382.376.688.752.8a.802.802 0 00.77-.375l-1.016-1.29"/><path id="Path_70" class="st1" d="M32.905 22.642a.635.635 0 01.106.018l2.209.842c-.185.421-.337.843-.551 1.23a.91.91 0 01-.879.453 1.21 1.21 0 01-1.209-1.672c.093-.294.215-.579.325-.87m1.734 1.226l-1.552-.587c-.31.623-.174 1.03.4 1.253s.948.027 1.156-.666"/><path id="Path_71" class="st1" d="M2.105 23.742c.066-.179.158-.348.273-.5a.572.572 0 01.9.114c.234.394.4.829.6 1.254-.094.042-.146.067-.2.088l-2.108.843c-.151-.42-.317-.82-.436-1.233a.524.524 0 01.236-.626.567.567 0 01.7.043c.022.016.045.029.025.016m1.248.523c-.119-.262-.158-.562-.47-.605a.423.423 0 00-.34.166c-.156.251.02.476.106.72l.7-.28m-1.641.654l.643-.257c-.119-.231-.135-.52-.434-.565a.385.385 0 00-.311.138c-.159.238.018.449.1.683"/><path id="Path_72" class="st1" d="M3.041 13.671a1.144 1.144 0 01-1.132 1.27 1.258 1.258 0 01-1.4-1.175 1.161 1.161 0 011.137-1.273 1.252 1.252 0 011.393 1.178m-1.067.7c.067 0 .134-.005.2-.015a.55.55 0 00.457-.41.506.506 0 00-.154-.554 1.275 1.275 0 00-1.106-.31.537.537 0 00-.447.446.531.531 0 00.211.556c.238.191.536.293.842.286"/><path id="Path_73" class="st1" d="M5.085 27.032a1.391 1.391 0 01-1.373 1.248 1.272 1.272 0 01-1.194-1.255 1.42 1.42 0 011.4-1.251 1.27 1.27 0 011.163 1.259m-1.489.729c.421-.041.791-.295.982-.672a.55.55 0 00-.524-.795 1.24 1.24 0 00-1.007.63.567.567 0 00.549.837"/><path id="Path_74" class="st1" d="M16.923 36a1.113 1.113 0 01-1.187-1.284 1.14 1.14 0 011.189-1.237 1.127 1.127 0 011.2 1.246 1.149 1.149 0 01-1.2 1.275m-.667-1.233c.04.193.098.382.172.565a.54.54 0 00.947.025c.221-.352.247-.793.069-1.169a.536.536 0 00-.963-.058 3.42 3.42 0 00-.225.637"/><path id="Path_75" class="st1" d="M30.653 28.758l-.742-.662.35-.407 1.842 1.625c-.266.3-.513.6-.788.871a.64.64 0 01-.809.154c-.278-.166-.349-.4-.242-.811-.478.08-.845-.231-1.313-.342.129-.147.23-.275.346-.385a.209.209 0 01.171-.014c.165.055.325.124.486.188.379.151.428.137.699-.217m.28.237c-.102.132-.198.27-.286.412a.3.3 0 00.086.407.3.3 0 00.413 0l.377-.288-.59-.527"/><path id="Path_76" class="st1" d="M2.905 11.193l.456.221.441.219-.23.481-2.222-1.068c.221-.409.416-.818.657-1.2a.53.53 0 01.655-.2c.254.073.425.31.415.574v.119c.444-.188.872 0 1.357-.029-.092.195-.154.345-.234.485-.019.033-.1.049-.146.046-.173-.01-.346-.032-.519-.05-.4-.044-.461-.01-.626.4m-.351-.163c.119-.241.284-.457.128-.7a.384.384 0 00-.326-.145c-.273.064-.316.333-.422.552l.62.3"/><path id="Path_77" class="st1" d="M14.4 34.698l-.3-.1.09-.339.783.2c-.07.285-.137.563-.206.84-.087.347-.093.374-.444.318a3.34 3.34 0 01-.989-.275 1.107 1.107 0 01-.538-1.323 1.209 1.209 0 011.015-.972 2.07 2.07 0 011.328.327l-.108.363a5.88 5.88 0 00-.556-.233.786.786 0 00-.9.208.994.994 0 00-.186 1.04.821.821 0 00.8.456.183.183 0 00.113-.106c.042-.122.065-.251.1-.4"/><path id="Path_78" class="st1" d="M6.185 31.614l.248-.284c.142.165.293.322.453.469a.79.79 0 00.967.084c.334-.209.514-.594.461-.984a.854.854 0 00-.514-.554.184.184 0 00-.16.046c-.088.1-.172.204-.249.312l.237.212-.214.281-.642-.5.732-.938a1.901 1.901 0 011.3 1.168c.133.477-.044.986-.444 1.278a1.146 1.146 0 01-1.28.178 2.203 2.203 0 01-.9-.77"/><path id="Path_79" class="st1" d="M4.333 6.931a5.86 5.86 0 00-.487.546.73.73 0 00-.025.877.98.98 0 00.9.476.8.8 0 00.654-.563.2.2 0 00-.06-.157 3.911 3.911 0 00-.311-.231l-.209.245-.284-.208.475-.657c.308.223.6.432.89.651a.186.186 0 01.028.166 2.207 2.207 0 01-.593.949 1.181 1.181 0 01-1.6.041 1.207 1.207 0 01-.326-1.579 4.92 4.92 0 01.457-.6c.134-.175.271-.189.419-.015a.387.387 0 00.081.064"/><path id="Path_80" class="st1" d="M6.421 7.504c-.027-.059-.056-.115-.08-.173-.283-.691-.561-1.383-.849-2.071a.205.205 0 01.062-.276c.4-.366.4-.369.9-.124l1.854.906-.4.377a.252.252 0 01-.054-.008c-.181-.085-.373-.253-.54-.232s-.291.24-.435.372a2.491 2.491 0 01-.208.19.161.161 0 00-.046.242.8.8 0 01.034.08c.188.434.186.439-.234.716m-.486-2.375l.454 1.083.583-.553-1.036-.53"/><path id="Path_81" class="st1" d="M2.489 19.869l.111.554a4.443 4.443 0 01-.4.234.21.21 0 00-.129.266l.005.012c.051.226.094.454.135.682.018.1.053.178.174.175a.492.492 0 01.085.017c.458.075.458.075.5.582l-.939-.15c-.485-.081-.969-.171-1.455-.245a.207.207 0 01-.2-.2c-.1-.533-.1-.533.353-.823l1.523-.965c.066-.042.134-.08.233-.138m-.791 1.076l-1 .608 1.16.182-.16-.79"/><path id="Path_82" class="st1" d="M30.668 27.222a.715.715 0 01.029-.077c.226-.42.227-.424.687-.32.139.031.24.021.294-.126a.503.503 0 01.045-.074c.12-.2.328-.4.333-.6s-.205-.382-.33-.589l.257-.428c.066.079.125.145.18.216.441.566.878 1.135 1.323 1.7a.226.226 0 01.027.3c-.285.459-.279.459-.818.36-.672-.124-1.346-.243-2.026-.366m1.712-.954l-.415.69 1.142.23-.727-.92"/><path id="Path_83" class="st1" d="M33.543 16.241l1.579.543c.233.08.464.164.7.238a.2.2 0 01.165.212c.037.555.043.555-.474.773l-1.741.732c-.052.022-.1.04-.163.062a.353.353 0 01-.022-.072c-.02-.481-.023-.488.423-.653a.22.22 0 00.171-.26l-.004-.015a2.632 2.632 0 01-.023-.478c.017-.245-.036-.4-.314-.459-.355-.08-.384-.174-.3-.623m1.011.841v.795l1.078-.434-1.078-.366"/><path id="Path_84" class="st1" d="M24.547 3.831c-.209-.078-.374-.128-.527-.2a.263.263 0 01-.1-.168c-.073-.316-.137-.634-.212-.986-.242.185-.469.338-.672.518a.41.41 0 01-.541.081 1.809 1.809 0 00-.275-.1c.37-.257.7-.507 1.047-.719a.336.336 0 00.175-.443l-.007-.016c-.1-.345-.18-.7-.277-1.086.168.051.332.112.492.184a.33.33 0 01.127.2c.067.273.119.549.183.853.219-.17.422-.31.6-.475a.364.364 0 01.482-.071 2 2 0 00.282.108l-.807.569c-.362.255-.362.254-.248.688l.277 1.067"/><path id="Path_85" class="st1" d="M31.235 7.973l-.54.4.64.877-.3.236-.972-1.319 1.967-1.46.952 1.289-.3.227-.634-.852-.5.374.6.818-.3.225-.606-.814"/><path id="Path_86" class="st1" d="M20.504.144l1.567.288-.064.368-1.038-.183-.118.619.986.187-.059.367-.989-.178-.13.66 1.074.209-.067.367-1.6-.292.438-2.412"/><path id="Path_87" class="st1" d="M32.345 11.758l.367-.12c.028.183.044.355.083.52a.673.673 0 00.137.314.493.493 0 00.335.165c.084-.011.186-.168.213-.277.034-.186.05-.374.049-.563a.642.642 0 01.447-.672.661.661 0 01.766.312c.198.294.317.634.346.987l-.362.126a2.865 2.865 0 00-.073-.391 1.338 1.338 0 00-.194-.407.32.32 0 00-.275-.1.337.337 0 00-.172.239c-.035.229-.024.464-.047.694a.635.635 0 01-.813.588.912.912 0 01-.435-.3 1.911 1.911 0 01-.372-1.119"/><path id="Path_88" class="st1" d="M21.68 35.286c.268-.043.512-.066.747-.124a.32.32 0 00.28-.337c-.012-.2-.171-.234-.32-.266-.177-.038-.357-.058-.535-.091a.6.6 0 01-.547-.484.624.624 0 01.314-.684 1.901 1.901 0 011.058-.274l.069.342c-.231.042-.445.064-.649.123-.145.041-.293.125-.275.316s.174.211.318.235c.185.031.373.049.557.083a.6.6 0 01.519.462.64.64 0 01-.205.689 1.836 1.836 0 01-1.18.356c-.031 0-.081-.052-.094-.09a2.037 2.037 0 01-.059-.257"/><path id="Path_89" class="st1" d="M14.708 2.321c.005 0 .012.009.015.014.147.344.141.369-.2.5-.14.058-.286.1-.436.126a1.192 1.192 0 01-1.472-1.053A1.293 1.293 0 0113.778.442l.065-.008c.463-.064.374-.052.453.35-.421.028-.848.063-1.06.514a.893.893 0 000 .72c.213.566.609.645 1.471.3"/><path id="Path_90" class="st1" d="M27.604 3.249l-.663-.374-1 1.745-.479-.273.992-1.747-.655-.382.21-.383 1.806 1.034-.213.38"/><path id="Path_91" class="st1" d="M35.429 13.387l.415 2.042-.422.082-.164-.739-1.961.393-.113-.533 1.964-.409-.145-.746.425-.09"/><path id="Path_92" class="st1" d="M20.09 35.934l-.538.054-.2-1.988-.753.067-.04-.428 2.046-.208.055.425-.758.091.192 1.987"/><path id="Path_93" class="st1" d="M17.309.388L17.34 0h2.05v.439h-.785V2.43h-.542v-2l-.754-.042"/><path id="Path_94" class="st1" d="M6.85 28.954l-1.827 1.635-.361-.409 1.492-1.341-.691-.789.327-.288 1.064 1.193"/><path id="Path_95" class="st1" d="M30.232 4.787l.361.34-1.429 1.426.785.748-.31.28-1.11-1.105 1.7-1.687"/><path id="Path_96" class="st1" d="M1.992 17.531h.44v1.624H1.014c-.253 0-.508-.007-.759.017-.195.018-.268-.047-.253-.236.007-.092 0-.185 0-.335h1.99v-1.07z"/><path id="Path_97" class="st1" d="M10.693 1.533l.506-.215.958 2.258-.5.218-.964-2.261"/><path id="Path_98" class="st1" d="M29.106 3.829l-1.481 1.952-.437-.332 1.481-1.955.437.335"/><path id="Path_99" class="st1" d="M10.417 32.869l.512.239-.214.456-.507-.238.212-.462"/><path id="Path_100" class="st1" d="M25.685 33.328l-.509.242-.219-.452.5-.246.224.456"/><path id="Path_101" class="st2" d="M13.077 26.84v-9.708l-2.985 3.021-3.3-3.327 7.658-7.68c.012.011.062.049.106.094l3.062 3.066a.517.517 0 01.165.4v13.892c0 .077-.012.155-.018.241l-4.688.001z"/><path id="Path_102" class="st2" d="M29.222 16.848l-3.281 3.287-2.935-2.948-.055.021v9.63h-4.7v-.267-13.85a.558.558 0 01.175-.439c1.005-1 2-2 3-3 .051-.051.1-.1.132-.125l7.67 7.7"/></g></g></switch></svg>