<svg version="1.1" id="Layer_1" xmlns="http://www.w3.org/2000/svg" x="0" y="0" viewBox="0 0 25.5 25.5" xml:space="preserve"><style>.st0{fill:none;stroke:#010202;stroke-width:1.5;stroke-linecap:round;stroke-linejoin:round}</style><switch><g><g id="Shipping" transform="translate(.75 .75)"><path id="Path_1_" class="st0" d="M19.1.4c-.2-.2-.5-.4-.9-.4H5.8c-.4 0-.7.2-.9.4L.2 7c-.1.2-.2.4-.2.6V23c0 .6.5 1 1 1h22c.6 0 1-.5 1-1V7.6c0-.2-.1-.4-.2-.6L19.1.4z"/><path id="Path-2_1_" class="st0" d="M12 2.3v5"/><path id="Path-3" class="st0" d="M17.1 20.9h3.8-3.8z"/><path id="Path-4" class="st0" d="M.1 7.3H24"/></g></g></switch></svg>