<svg id="Layer_1" data-name="Layer 1" xmlns="http://www.w3.org/2000/svg" viewBox="0 0 544.35 80.52"><defs><style>.cls-1{fill:none}.cls-2{fill:#fff}</style></defs><path class="cls-1" d="M275.77 31.66a17.63 17.63 0 0 0-15.53 9.12 18.33 18.33 0 0 0 0 18.29 17.78 17.78 0 0 0 6.58 6.8 17.27 17.27 0 0 0 8.88 2.42 18.2 18.2 0 0 0 9.08-2.4 16.86 16.86 0 0 0 6.58-6.53 18.59 18.59 0 0 0 2.31-9.27A18 18 0 0 0 288.52 37a17.1 17.1 0 0 0-12.75-5.34ZM463.09 37a17.12 17.12 0 0 0-12.74-5.3 17.6 17.6 0 0 0-15.54 9.12 18.36 18.36 0 0 0 0 18.29 17.83 17.83 0 0 0 6.6 6.8 17.19 17.19 0 0 0 8.88 2.42 18.22 18.22 0 0 0 9.07-2.4 16.86 16.86 0 0 0 6.64-6.57 18.59 18.59 0 0 0 2.31-9.27A18 18 0 0 0 463.09 37ZM378.15 59.36a16.72 16.72 0 0 0 6.6 6.53 18.24 18.24 0 0 0 9.07 2.4 17.09 17.09 0 0 0 8.83-2.42 17.78 17.78 0 0 0 6.58-6.8 18.33 18.33 0 0 0 0-18.29 17.6 17.6 0 0 0-15.51-9.12A17.07 17.07 0 0 0 381 37a17.94 17.94 0 0 0-5.17 13.13 18.58 18.58 0 0 0 2.32 9.23ZM114.78 40.2a11.89 11.89 0 0 0-8.93-3.66 11.52 11.52 0 0 0-8.75 3.72 13.43 13.43 0 0 0-3.48 9.56 13.59 13.59 0 0 0 3.54 9.66 11.53 11.53 0 0 0 8.74 3.79 11.75 11.75 0 0 0 8.88-3.73 13.64 13.64 0 0 0 3.53-9.76 13.25 13.25 0 0 0-3.53-9.58ZM320 59.36a16.88 16.88 0 0 0 6.61 6.53 18.25 18.25 0 0 0 9.08 2.4 17.08 17.08 0 0 0 8.82-2.42 17.88 17.88 0 0 0 6.59-6.8 18.32 18.32 0 0 0 0-18.29 17.57 17.57 0 0 0-15.5-9.12A17.16 17.16 0 0 0 322.84 37a18 18 0 0 0-5.16 13.13 18.58 18.58 0 0 0 2.32 9.23ZM540.91 33.34a18.08 18.08 0 0 0-7.72-1.71 16.63 16.63 0 0 0-11.46 4.28q-3.5 3.14-5.29 9.37h33.77a19.45 19.45 0 0 0-3.41-7.45 16.12 16.12 0 0 0-5.89-4.49ZM51.32 63.27a11.55 11.55 0 0 0 8.76-3.8 13.52 13.52 0 0 0 3.57-9.65 13.49 13.49 0 0 0-3.5-9.56 11.66 11.66 0 0 0-8.83-3.72 11.88 11.88 0 0 0-8.91 3.66 13.21 13.21 0 0 0-3.54 9.58 13.6 13.6 0 0 0 3.54 9.76 11.79 11.79 0 0 0 8.91 3.73Z" transform="translate(-28.09 -8.57)"/><path class="cls-2" d="M39.37 67.73a22.13 22.13 0 0 0 6.7 4.55 18.88 18.88 0 0 0 7.28 1.4 20.2 20.2 0 0 0 15.21-6.81A23.74 23.74 0 0 0 75 50c0-7-2.06-12.72-6.2-17.2a19.81 19.81 0 0 0-15.07-6.7A19.3 19.3 0 0 0 46 27.59a21.4 21.4 0 0 0-6.66 4.62V9.73H28.09v62.78h11.28Zm3-27.53a11.88 11.88 0 0 1 8.91-3.66 11.66 11.66 0 0 1 8.83 3.72 13.49 13.49 0 0 1 3.5 9.56 13.52 13.52 0 0 1-3.57 9.65 11.55 11.55 0 0 1-8.76 3.8 11.79 11.79 0 0 1-8.91-3.73 13.6 13.6 0 0 1-3.54-9.76 13.21 13.21 0 0 1 3.58-9.58ZM129.17 72.51V27.22H117.8v5a21.05 21.05 0 0 0-6.6-4.62 19.13 19.13 0 0 0-7.66-1.54 19.74 19.74 0 0 0-15.05 6.7c-4.14 4.48-6.2 10.2-6.2 17.2a23.75 23.75 0 0 0 6.41 16.91 20.09 20.09 0 0 0 15.18 6.81 18.66 18.66 0 0 0 7.25-1.4 22 22 0 0 0 6.67-4.55v4.78Zm-14.39-13a11.75 11.75 0 0 1-8.88 3.73 11.53 11.53 0 0 1-8.74-3.79 13.59 13.59 0 0 1-3.54-9.66 13.43 13.43 0 0 1 3.48-9.56 11.52 11.52 0 0 1 8.75-3.72 11.89 11.89 0 0 1 8.93 3.66 13.25 13.25 0 0 1 3.53 9.58 13.64 13.64 0 0 1-3.53 9.79ZM164.79 69.64a13.79 13.79 0 0 0 2-18q-2.44-3.36-9-6.62L153.57 43a12.72 12.72 0 0 1-3.4-2.1 2.43 2.43 0 0 1 .4-3.71 4.91 4.91 0 0 1 3-.81q3.5 0 7.78 4.25l7-7a18.33 18.33 0 0 0-14.91-7.5 15.07 15.07 0 0 0-10.59 3.8 12 12 0 0 0-4.11 9.07q0 8.34 11 13.87l3.83 1.92c3.3 1.66 5 3.37 5 5.11a3.19 3.19 0 0 1-1.37 2.51 5.71 5.71 0 0 1-3.62 1.07 10.29 10.29 0 0 1-4.77-1.43 16.24 16.24 0 0 1-4.69-3.76l-7 7.61a18.89 18.89 0 0 0 15.82 7.74q7.42.03 11.85-4Z" transform="translate(-28.09 -8.57)"/><path class="cls-2" d="M148.84 18.65h11.37v45.29h-11.37z"/><path class="cls-2" d="M187.73 10.73a7.18 7.18 0 0 0-10.23 0 7 7 0 0 0-2.12 5.12 7.3 7.3 0 0 0 2.14 5.31 7 7 0 0 0 5.17 2.18 6.86 6.86 0 0 0 5.06-2.14 7.13 7.13 0 0 0 2.13-5.2 7.18 7.18 0 0 0-2.15-5.27ZM222.11 36.62a15.91 15.91 0 0 1 6.11 1.08 16.27 16.27 0 0 1 5.27 3.87l9.51-5.19a22.85 22.85 0 0 0-8.79-7.65 26.64 26.64 0 0 0-12.1-2.68 27.31 27.31 0 0 0-13.19 3.17 23.62 23.62 0 0 0-5.7 37.38q6.77 7.07 18.72 7.08 13.28 0 20.56-9.48l-9-6.14c-2.83 3.46-6.8 5.21-11.88 5.21a13.73 13.73 0 0 1-10-3.67 12.53 12.53 0 0 1-3.78-9.43 12.91 12.91 0 0 1 3.93-9.74 14.21 14.21 0 0 1 10.34-3.81ZM299.07 27.22h-5.75v8.32a22.77 22.77 0 0 0-7.93-7.12 21.34 21.34 0 0 0-10.09-2.37 22.38 22.38 0 0 0-16.53 7 23 23 0 0 0-6.87 16.73 23.43 23.43 0 0 0 6.81 17 23 23 0 0 0 26.39 4.72 25.2 25.2 0 0 0 8.22-6.7v7.78h5.75Zm-7.68 32.14a16.86 16.86 0 0 1-6.58 6.53 18.2 18.2 0 0 1-9.08 2.4 17.27 17.27 0 0 1-8.88-2.42 17.78 17.78 0 0 1-6.58-6.8 18.33 18.33 0 0 1 0-18.29 17.63 17.63 0 0 1 15.53-9.12A17.1 17.1 0 0 1 288.52 37a18 18 0 0 1 5.18 13.13 18.59 18.59 0 0 1-2.31 9.23ZM312.27 27.22v61.87h5.83V64.73a25.1 25.1 0 0 0 8.19 6.7 22.88 22.88 0 0 0 26.34-4.72 23.43 23.43 0 0 0 6.81-17A23 23 0 0 0 352.58 33a22.37 22.37 0 0 0-16.52-6.95 21.17 21.17 0 0 0-10 2.37 23.33 23.33 0 0 0-7.94 7.12v-8.32ZM322.84 37a17.16 17.16 0 0 1 12.75-5.3 17.57 17.57 0 0 1 15.5 9.12 18.32 18.32 0 0 1 0 18.29 17.88 17.88 0 0 1-6.59 6.8 17.08 17.08 0 0 1-8.82 2.42 18.25 18.25 0 0 1-9.08-2.4 16.88 16.88 0 0 1-6.6-6.57 18.58 18.58 0 0 1-2.3-9.27A18 18 0 0 1 322.84 37ZM370.43 27.22v61.87h5.82V64.73a25.34 25.34 0 0 0 8.2 6.7 22.9 22.9 0 0 0 26.35-4.72 23.46 23.46 0 0 0 6.8-17A23 23 0 0 0 410.74 33a22.35 22.35 0 0 0-16.51-6.95 21.18 21.18 0 0 0-10 2.37 23.45 23.45 0 0 0-7.95 7.12v-8.32ZM381 37a17.07 17.07 0 0 1 12.73-5.3 17.6 17.6 0 0 1 15.51 9.12 18.33 18.33 0 0 1 0 18.29 17.78 17.78 0 0 1-6.58 6.8 17.09 17.09 0 0 1-8.83 2.42 18.24 18.24 0 0 1-9.07-2.4 16.72 16.72 0 0 1-6.6-6.53 18.58 18.58 0 0 1-2.3-9.27A17.94 17.94 0 0 1 381 37ZM473.64 72.51V27.22h-5.75v8.32a22.86 22.86 0 0 0-7.89-7.12 21.38 21.38 0 0 0-10.1-2.37 22.4 22.4 0 0 0-16.53 7 23 23 0 0 0-6.87 16.73 23.4 23.4 0 0 0 6.82 17 22.95 22.95 0 0 0 26.38 4.72 25.13 25.13 0 0 0 8.23-6.7v7.78ZM466 59.36a16.86 16.86 0 0 1-6.58 6.53 18.22 18.22 0 0 1-9.07 2.4 17.19 17.19 0 0 1-8.88-2.42 17.83 17.83 0 0 1-6.6-6.8 18.36 18.36 0 0 1 0-18.29 17.6 17.6 0 0 1 15.54-9.12A17.12 17.12 0 0 1 463.09 37a18 18 0 0 1 5.18 13.13 18.59 18.59 0 0 1-2.27 9.23ZM484.54 27.22v45.29h6V57.19q0-11.77 1.09-15.65c.94-3.37 2.31-5.84 4.12-7.44a7.31 7.31 0 0 1 8.7-1.61l3-4.9a10.66 10.66 0 0 0-5.15-1.54 11.18 11.18 0 0 0-6.18 1.95 21.22 21.22 0 0 0-5.62 5.85v-6.63ZM551.62 34.84q-6.92-8.79-18.51-8.79a21.62 21.62 0 0 0-18 8.58A24.15 24.15 0 0 0 509.86 50a24.5 24.5 0 0 0 6.25 16.43q6.24 7.26 17.33 7.27a24.68 24.68 0 0 0 9-1.53 22 22 0 0 0 7.13-4.42 27.07 27.07 0 0 0 5.59-7.67l-4.91-2.58a27.48 27.48 0 0 1-5 6.43 17.86 17.86 0 0 1-5.57 3.19 19.11 19.11 0 0 1-6.73 1.2 16 16 0 0 1-12-5 18.47 18.47 0 0 1-5-12.95h40.76q-.18-9.37-5.09-15.53Zm-35.18 10.44q1.78-6.24 5.29-9.37a16.63 16.63 0 0 1 11.46-4.28 18.08 18.08 0 0 1 7.72 1.71 16.12 16.12 0 0 1 5.89 4.49 19.45 19.45 0 0 1 3.41 7.45Z" transform="translate(-28.09 -8.57)"/><path class="cls-2" d="M538.52 1.16h5.83v62.78h-5.83z"/></svg>